<svg xmlns="http://www.w3.org/2000/svg" version="1.1" xmlns:xlink="http://www.w3.org/1999/xlink" xmlns:svgjs="http://svgjs.dev/svgjs" width="1500" height="1500" viewBox="0 0 1500 1500"><rect width="1500" height="1500" fill="#ffffff"></rect><g transform="matrix(0.6666666666666666,0,0,0.6666666666666666,250,437.6666666666667)"><svg viewBox="0 0 512 320" data-background-color="#ffffff" preserveAspectRatio="xMidYMid meet" height="937" width="1500" xmlns="http://www.w3.org/2000/svg" xmlns:xlink="http://www.w3.org/1999/xlink"><g id="tight-bounds" transform="matrix(1,0,0,1,0,0)"><svg viewBox="0 0 512 320" height="320" width="512"><g><svg></svg></g><g><svg viewBox="0 0 512 320" height="320" width="512"><g><path d="M96 320l0-320 320 0 0 320zM401.571 305.571v-291.142l-291.142 0 0 291.142z" fill="#000000" fill-rule="nonzero" stroke="none" stroke-width="1" stroke-linecap="butt" stroke-linejoin="miter" stroke-miterlimit="10" stroke-dasharray="" stroke-dashoffset="0" font-family="none" font-weight="none" font-size="none" text-anchor="none" style="mix-blend-mode: normal" data-fill-palette-color="tertiary"></path></g><g transform="matrix(1,0,0,1,191.60439560439562,80)"><svg viewBox="0 0 128.7912087912088 160" height="160" width="128.7912087912088"><g><svg viewBox="0 0 128.7912087912088 160" height="160" width="128.7912087912088"><g><svg viewBox="0 0 128.7912087912088 160" height="160" width="128.7912087912088"><g><svg viewBox="0 0 128.7912087912088 160" height="160" width="128.7912087912088"><g id="textblocktransform"><svg viewBox="0 0 128.7912087912088 160" height="160" width="128.7912087912088" id="textblock"><g><svg viewBox="0 0 128.7912087912088 160" height="160" width="128.7912087912088"><g transform="matrix(1,0,0,1,0,0)"><svg width="128.7912087912088" viewBox="0.78 -35.55 28.61 35.55" height="160" data-palette-color="#00dfb3"><path d="M19.04 0L23.22 0 29.39-35.55 25.22-35.55 22.56-20.26 8.45-20.26 11.11-35.55 6.96-35.55 0.78 0 4.93 0 7.79-16.43 21.9-16.43 19.04 0Z" opacity="1" transform="matrix(1,0,0,1,0,0)" fill="#000000" class="wordmark-text-0" data-fill-palette-color="primary" id="text-0"></path></svg></g></svg></g></svg></g></svg></g></svg></g></svg></g></svg></g></svg></g><defs></defs></svg><rect width="512" height="320" fill="none" stroke="none" visibility="hidden"></rect></g></svg></g></svg>